<svg xmlns="http://www.w3.org/2000/svg" xmlns:xlink="http://www.w3.org/1999/xlink" viewBox="0 0 29.44 25.24"><defs><style>.cls-1{fill:none;}.cls-2{isolation:isolate;}.cls-3{clip-path:url(#clip-path);}.cls-4{fill:#dcdcdc;}.cls-5{clip-path:url(#clip-path-2);}.cls-6{fill:#898989;}.cls-7{clip-path:url(#clip-path-3);}.cls-8{clip-path:url(#clip-path-4);}.cls-9{fill:#58071a;}.cls-10{clip-path:url(#clip-path-5);}.cls-11{fill:#c5c5c5;}.cls-12{clip-path:url(#clip-path-6);}.cls-13{fill:#6d6e71;}.cls-14{clip-path:url(#clip-path-7);}</style><clipPath id="clip-path" transform="translate(-0.15)"><polygon class="cls-1" points="5.84 5.87 11.93 2.33 29.67 12.57 23.58 16.11 5.84 5.87"/></clipPath><clipPath id="clip-path-2" transform="translate(-0.15)"><polygon class="cls-1" points="5.85 12.67 5.87 5.82 23.43 15.96 23.41 22.81 5.85 12.67"/></clipPath><clipPath id="clip-path-3" transform="translate(-0.15)"><polygon class="cls-1" points="0 16.47 6.09 12.93 22.03 22.13 15.94 25.67 0 16.47"/></clipPath><clipPath id="clip-path-4" transform="translate(-0.15)"><polygon class="cls-1" points="0.17 15.92 0.15 9.51 5.72 6.29 5.74 12.7 0.17 15.92"/></clipPath><clipPath id="clip-path-5" transform="translate(-0.15)"><polygon class="cls-1" points="0.45 15.22 0.43 9.93 5.46 7.03 5.47 12.32 0.45 15.22"/></clipPath><clipPath id="clip-path-6" transform="translate(-0.15)"><polygon class="cls-1" points="9.43 0.2 9.43 0 18.65 5.32 18.65 5.52 9.43 0.2"/></clipPath><clipPath id="clip-path-7" transform="translate(-0.15)"><polygon class="cls-1" points="2.92 7 2.92 6.8 13.67 0.6 13.67 0.79 2.92 7"/></clipPath></defs><g id="Layer_2" data-name="Layer 2"><g id="Layer_1-2" data-name="Layer 1"><g class="cls-2"><g class="cls-3"><path class="cls-4" d="M10.12,4.47l1.82-1.06.44.25c.15.09.22.18.22.28s-.12.2-.32.31l-.7.41a1.29,1.29,0,0,1-.55.19.9.9,0,0,1-.47-.13l-.44-.25m3.1-1.3-1.38-.79L5.92,5.82l.94.54L9.27,5l.44.25a2.7,2.7,0,0,0,1.42.39,2.89,2.89,0,0,0,1.44-.43l.58-.34c.49-.28.73-.55.74-.83s-.2-.56-.67-.83" transform="translate(-0.15)"/><polyline class="cls-4" points="15.92 4.82 14.98 4.28 9.06 7.71 10 8.26 15.92 4.82"/><polyline class="cls-4" points="19.55 6.91 18.63 6.38 15.82 7.28 15.8 7.27 17.34 5.64 16.34 5.06 14.08 7.69 11.56 9.16 12.49 9.69 15.01 8.23 19.55 6.91"/><path class="cls-4" d="M22.88,8.75,22,8.23l-4.59,2.66a1.24,1.24,0,0,1-.56.19,1,1,0,0,1-.49-.13c-.15-.09-.22-.18-.22-.28s.11-.21.32-.33L21,7.68l-.93-.54L15.57,9.76c-.48.28-.72.56-.75.85s.2.56.66.82a2.62,2.62,0,0,0,1.42.38,3,3,0,0,0,1.46-.44l4.52-2.62" transform="translate(-0.15)"/><path class="cls-4" d="M24.87,9.8a2.67,2.67,0,0,0-1.42-.37A2.89,2.89,0,0,0,22,9.86a1.75,1.75,0,0,0-.7.67,1.87,1.87,0,0,0-.11,1,1.53,1.53,0,0,1-.05.77,1.06,1.06,0,0,1-.49.47,1.2,1.2,0,0,1-.57.19.83.83,0,0,1-.49-.12c-.33-.19-.31-.4.07-.62l.41-.23-.88-.51-.34.19c-.47.28-.73.56-.76.84s.2.56.65.83a2.71,2.71,0,0,0,1.45.37,3,3,0,0,0,1.47-.44,1.76,1.76,0,0,0,.75-.69,1.65,1.65,0,0,0,.11-1,1.6,1.6,0,0,1,0-.76.85.85,0,0,1,.43-.45,1,1,0,0,1,1-.06c.16.09.23.18.21.28s-.12.21-.33.33l-.3.18.88.51.25-.15c.47-.27.73-.55.76-.83s-.19-.56-.64-.82" transform="translate(-0.15)"/><polyline class="cls-4" points="29.44 12.62 28.5 12.08 26.09 13.48 25.08 12.9 27.5 11.5 26.56 10.96 20.64 14.4 21.58 14.94 24.24 13.39 25.24 13.97 22.58 15.52 23.52 16.06 29.44 12.62"/></g></g><g class="cls-2"><g class="cls-5"><polyline class="cls-6" points="8.77 7.58 7.91 7.08 7.28 12.04 7.26 12.03 6.67 6.37 5.72 5.82 6.6 13.19 7.85 13.91 8.77 7.58"/><polyline class="cls-6" points="11.78 9.32 9.22 7.84 9.2 14.69 11.76 16.17 11.76 15.19 10.14 14.25 10.14 12.15 11.43 12.9 11.44 11.91 10.14 11.17 10.15 9.36 11.77 10.3 11.78 9.32"/><path class="cls-6" d="M13.38,13.1V11.15l.43.24a.83.83,0,0,1,.35.37,1.25,1.25,0,0,1,.12.61v.53q0,.39-.15.48c-.08,0-.23,0-.42-.09l-.34-.19m.47-2.67-1.39-.8,0,6.85.93.54V14.08l.33.19a1.14,1.14,0,0,1,.45.45,1.62,1.62,0,0,1,.13.73V16.7a3.58,3.58,0,0,0,0,.54,1.71,1.71,0,0,0,.06.35l1,.55a2.12,2.12,0,0,1-.08-.41c0-.12,0-.29,0-.48V16a3.35,3.35,0,0,0-.13-1,1.67,1.67,0,0,0-.48-.75v0c.41,0,.61-.29.62-1V12.8a2.76,2.76,0,0,0-.33-1.38,2.73,2.73,0,0,0-1.05-1" transform="translate(-0.15)"/><polyline class="cls-6" points="19.62 13.85 18.28 13.07 17.67 17.63 17.65 17.62 17.07 12.38 15.74 11.61 15.72 18.46 16.54 18.93 16.55 13.74 16.57 13.75 17.23 19.33 18.02 19.79 18.72 14.99 18.73 15 18.71 20.19 19.6 20.7 19.62 13.85"/><path class="cls-6" d="M21.35,19.35l.42-3.15h0l.41,3.63-.85-.49m1.11-4-1.27-.73L20.2,21l.87.5.17-1.24,1.07.61v0l.16,1.46.94.54-.95-7.41" transform="translate(-0.15)"/></g></g><g class="cls-2"><g class="cls-7"><path d="M7.47,13.73a2.66,2.66,0,0,0-1.41-.37,2.88,2.88,0,0,0-1.42.42L1.45,15.63c-.46.27-.7.54-.72.82s.2.56.65.82a2.66,2.66,0,0,0,1.41.37,2.88,2.88,0,0,0,1.42-.42l.84-.49-.89-.51-.9.52a1,1,0,0,1-1,.05c-.31-.18-.28-.37.08-.58l3.3-1.92a1,1,0,0,1,1-.06c.31.18.28.38-.09.59l-.68.4.89.51.63-.36c.46-.27.7-.54.72-.83s-.2-.55-.65-.81" transform="translate(-0.15)"/><path d="M5.54,18.69c-.33-.19-.29-.39.09-.62l3.24-1.88a1,1,0,0,1,1.07-.06c.32.19.29.4-.1.62L6.61,18.63a1,1,0,0,1-1.07.06m5.24-3.05a2.89,2.89,0,0,0-1.44-.39,3.06,3.06,0,0,0-1.47.44l-3.11,1.8c-.48.28-.72.56-.74.85s.21.58.67.84a2.6,2.6,0,0,0,1.44.38,2.94,2.94,0,0,0,1.47-.43l3.11-1.8c.47-.28.72-.56.74-.85s-.21-.57-.67-.84" transform="translate(-0.15)"/><path d="M8.61,20.36l4.23-2.45.47.27c.15.09.23.19.22.29s-.11.2-.31.32l-3.08,1.79a1.28,1.28,0,0,1-.56.19.92.92,0,0,1-.49-.13l-.48-.28m5.57-2.66-1.43-.83L6.82,20.32l1.43.82a2.73,2.73,0,0,0,1.43.39,3,3,0,0,0,1.44-.43l3-1.74c.48-.28.72-.56.74-.84s-.2-.55-.67-.82" transform="translate(-0.15)"/><polyline points="18.61 20.34 16.05 18.87 10.13 22.31 12.68 23.79 13.53 23.29 11.92 22.36 13.73 21.3 15.02 22.05 15.87 21.55 14.58 20.81 16.14 19.9 17.76 20.84 18.61 20.34"/><path d="M20.65,21.34A2.74,2.74,0,0,0,19.22,21a2.89,2.89,0,0,0-1.44.43,1.57,1.57,0,0,0-.7.67,1.89,1.89,0,0,0-.11,1,1.39,1.39,0,0,1,0,.76,1.14,1.14,0,0,1-.48.47,1.22,1.22,0,0,1-.58.2,1,1,0,0,1-.5-.13c-.32-.18-.29-.39.09-.62l.4-.23L15,23l-.33.2c-.49.28-.74.56-.76.84s.19.56.65.82a2.72,2.72,0,0,0,1.43.38,3.05,3.05,0,0,0,1.48-.44,1.9,1.9,0,0,0,.75-.7,1.7,1.7,0,0,0,.12-1,1.51,1.51,0,0,1,0-.76,1.12,1.12,0,0,1,1.46-.51c.15.09.22.19.21.28s-.12.22-.32.33l-.31.18.88.51.25-.14q.72-.42.75-.84c0-.29-.18-.55-.62-.81" transform="translate(-0.15)"/></g></g><g class="cls-2"><g class="cls-8"><polyline class="cls-9" points="5.57 6.29 0 9.51 0.02 15.92 5.59 12.7 5.57 6.29"/></g></g><g class="cls-2"><g class="cls-10"><polyline class="cls-11" points="1.67 10.5 0.29 12.29 0.29 12.86 1.68 13.06 1.68 12.45 0.72 12.32 1.68 11.1 1.67 10.5"/><polyline class="cls-11" points="3.64 8 3.21 8.24 1.97 14.26 2.4 14.01 3.64 8"/><polyline class="cls-11" points="3.93 9.19 3.93 9.8 4.89 9.92 3.93 11.15 3.94 11.76 5.32 9.96 5.32 9.39 3.93 9.19"/></g></g><g class="cls-2"><g class="cls-12"><path class="cls-13" d="M17.58,4.71l-.7-.41v.2l.7.41v-.2M16.52,4.1l-.7-.41v.19l.7.41V4.1m-1.06-.62-.71-.41v.2l.71.41v-.2m-1.07-.62-.71-.41v.2l.71.41v-.2m-1.06-.61-.71-.41V2l.71.41v-.2m-1.06-.61-.71-.41v.2l.71.4V1.64M11.2,1,10.49.61v.2l.71.41V1M10.14.41,9.43,0V.2l.71.41V.41m8.51,4.91-.71-.41v.2l.71.41v-.2" transform="translate(-0.15)"/></g></g><g class="cls-2"><g class="cls-14"><path class="cls-13" d="M13.21.87l-.71.4v.2l.71-.41V.87m-1.07.61-.71.41v.2l.71-.41v-.2m-1.06.61-.71.41v.2l.71-.41v-.2M10,2.71l-.71.41v.2l.7-.41v-.2M9,3.32l-.71.41v.2L9,3.52v-.2m-1.06.62-.71.41v.19l.71-.41V3.94m-1.07.61L6.11,5v.2l.71-.41v-.2m-1.07.62-.7.41v.19l.71-.4v-.2m-1,.61L4,6.19v.2L4.7,6v-.2m-1.07.61-.71.41V7l.71-.41v-.2M13.67.6l-.11.06v.2l.11-.07V.6" transform="translate(-0.15)"/></g></g></g></g></svg>